<svg id="visual" viewBox="0 0 960 540" width="960" height="540" xmlns="http://www.w3.org/2000/svg" xmlns:xlink="http://www.w3.org/1999/xlink" version="1.1"><rect x="0" y="0" width="960" height="540" fill="#1E1D2F"></rect><path d="M457 540L455.3 522C453.7 504 450.3 468 459.8 432C469.3 396 491.7 360 494.3 324C497 288 480 252 473.2 216C466.3 180 469.7 144 477.8 108C486 72 499 36 505.5 18L512 0L960 0L960 18C960 36 960 72 960 108C960 144 960 180 960 216C960 252 960 288 960 324C960 360 960 396 960 432C960 468 960 504 960 522L960 540Z" fill="#8F5AFF" stroke-linecap="round" stroke-linejoin="miter"></path></svg>